# Blender v3.0.1 OBJ File: 'thing.blend'
# www.blender.org
mtllib thing.mtl
o Cube
v -11.326175 0.099229 11.326175
v -11.326175 0.099229 -11.326175
v 11.326175 0.099229 11.326175
v 11.326175 0.099229 -11.326175
v 0.000000 0.099229 -11.326175
v 0.000000 0.099229 11.326175
v -11.326175 0.099229 0.000000
v 11.326175 0.099229 0.000000
v 0.000000 0.099229 0.000000
v 11.326175 0.099229 5.663087
v -11.326175 0.099229 5.663087
v 0.000000 0.099229 5.663087
v -11.326175 0.099229 -5.663087
v 0.000000 0.099229 -5.663087
v 11.326175 0.099229 -5.663087
v 5.663087 0.099229 -11.326175
v 5.663087 0.099229 11.326175
v 5.663087 0.099229 0.000000
v 5.663087 0.099229 5.663087
v 5.663087 0.099229 -5.663087
v -5.663087 0.099229 11.326175
v -5.663087 0.099229 -11.326175
v -5.663087 0.099229 0.000000
v -5.663087 0.099229 5.663087
v -5.663087 0.099229 -5.663087
v 15.022385 2.485616 -11.326175
v 15.022385 2.485616 11.326175
v 15.022385 2.485616 0.000000
v 15.022385 2.485616 5.663087
v 15.022385 2.485616 -5.663087
v -11.326175 3.004404 15.554065
v 11.326175 3.004404 15.554065
v 0.000000 3.004404 15.554065
v 5.663087 3.004404 15.554065
v -5.663087 3.004404 15.554065
v -15.695980 2.651236 11.326175
v -15.695980 2.651236 -11.326175
v -15.695980 2.651236 0.000000
v -15.695980 2.651236 5.663087
v -15.695980 2.651236 -5.663087
v -11.326175 3.375047 -16.676302
v 11.326175 3.375047 -16.676302
v 0.000000 3.375047 -16.676302
v 5.663087 3.375047 -16.676302
v -5.663087 3.375047 -16.676302
v 5.724759 -5.373073 -11.254709
v 11.387846 -5.373073 -11.254709
v -11.264503 -5.373073 -5.591622
v -11.264503 -5.373073 -11.254709
v 11.387846 -5.373073 5.734553
v 11.387846 -5.373073 11.397640
v -5.601416 -5.373073 11.397640
v -11.264503 -5.373073 11.397640
v -11.264503 -5.373073 5.734553
v 11.387846 -5.373073 -5.591622
v 5.724759 -5.373073 11.397640
v -5.601416 -5.373073 -11.254709
v 15.084056 -2.986685 5.734553
v 15.084056 -2.986685 11.397640
v 15.084056 -2.986685 -11.254709
v 15.084056 -2.986685 -5.591622
v -5.601416 -2.467898 15.625530
v -11.264503 -2.467898 15.625530
v 11.387846 -2.467898 15.625530
v 5.724759 -2.467898 15.625530
v -15.634309 -2.821066 -5.591622
v -15.634309 -2.821066 -11.254709
v -15.634309 -2.821066 11.397640
v -15.634309 -2.821066 5.734553
v 5.724759 -2.097254 -16.604836
v 11.387846 -2.097254 -16.604836
v -11.264503 -2.097254 -16.604836
v -5.601416 -2.097254 -16.604836
v 15.022385 2.485616 5.710678
v 11.326175 0.099229 5.710678
v -15.695980 2.651236 5.710678
v -11.326175 0.099229 5.710678
v 15.084056 -2.986685 5.782143
v 11.387846 -5.373073 5.782143
v -15.634309 -2.821066 5.782143
v -11.264503 -5.373073 5.782143
v -5.691888 3.004404 15.554065
v -5.691888 0.099229 11.326175
v -5.691888 3.375047 -16.676302
v -5.691888 0.099229 -11.326175
v -5.630217 -2.467898 15.625530
v -5.630217 -5.373073 11.397640
v -5.630217 -2.097254 -16.604836
v -5.630217 -5.373073 -11.254709
vt 0.875000 0.687500
vt 0.812500 0.750000
vt 0.812500 0.687500
vt 0.750000 0.687500
vt 0.687500 0.750000
vt 0.687500 0.687500
vt 0.750000 0.562500
vt 0.687500 0.625000
vt 0.687500 0.562500
vt 0.875000 0.562500
vt 0.812500 0.625000
vt 0.812500 0.562500
vt 0.875000 0.500000
vt 0.812500 0.500000
vt 0.750000 0.500000
vt 0.687500 0.500000
vt 0.750000 0.625000
vt 0.875000 0.625000
vt 0.750000 0.750000
vt 0.625000 0.687500
vt 0.625000 0.625000
vt 0.625000 0.562500
vt 0.625000 0.500000
vt 0.625000 0.750000
vt 0.875000 0.625000
vt 0.875000 0.687500
vt 0.812500 0.500000
vt 0.875000 0.500000
vt 0.000000 0.000000
vt 0.000000 0.000000
vt 0.000000 0.000000
vt 0.750000 0.500000
vt 0.812500 0.500000
vt 0.625000 0.562500
vt 0.625000 0.562500
vt 0.687500 0.750000
vt 0.687500 0.750000
vt 0.625000 0.562500
vt 0.000000 0.000000
vt 0.000000 0.000000
vt 0.000000 0.000000
vt 0.625000 0.625000
vt 0.000000 0.000000
vt 0.000000 0.000000
vt 0.000000 0.000000
vt 0.000000 0.000000
vt 0.000000 0.000000
vt 0.000000 0.000000
vt 0.750000 0.750000
vt 0.000000 0.000000
vt 0.000000 0.000000
vt 0.000000 0.000000
vt 0.687500 0.750000
vt 0.875000 0.687500
vt 0.875000 0.750000
vt 0.875000 0.750000
vt 0.875000 0.562500
vt 0.875000 0.562500
vt 0.625000 0.500000
vt 0.687500 0.500000
vt 0.687500 0.500000
vt 0.875000 0.500000
vt 0.625000 0.750000
vt 0.625000 0.687500
vt 0.625000 0.687500
vt 0.625000 0.500000
vt 0.812500 0.750000
vt 0.812500 0.750000
vt 0.625000 0.750000
vt 0.625000 0.687500
vt 0.625000 0.687500
vt 0.000000 0.000000
vt 0.000000 0.000000
vt 0.000000 0.000000
vt 0.000000 0.000000
vt 0.000000 0.000000
vt 0.000000 0.000000
vt 0.000000 0.000000
vt 0.875000 0.750000
vt 0.000000 0.000000
vt 0.000000 0.000000
vt 0.000000 0.000000
vt 0.687500 0.500000
vt 0.812500 0.500000
vt 0.000000 0.000000
vt 0.000000 0.000000
vt 0.000000 0.000000
vt 0.000000 0.000000
vt 0.000000 0.000000
vt 0.000000 0.000000
vt 0.000000 0.000000
vt 0.000000 0.000000
vt 0.812500 0.500000
vt 0.000000 0.000000
vt 0.000000 0.000000
vt 0.875000 0.562500
vt 0.000000 0.000000
vt 0.625000 0.687500
vt 0.625000 0.687500
vt 0.625000 0.687500
vt 0.875000 0.687500
vt 0.875000 0.687500
vt 0.875000 0.687500
vt 0.875000 0.687500
vt 0.000000 0.000000
vt 0.000000 0.000000
vt 0.000000 0.000000
vt 0.000000 0.000000
vt 0.812500 0.500000
vt 0.812500 0.750000
vt 0.812500 0.750000
vt 0.812500 0.750000
vt 0.812500 0.750000
vt 0.812500 0.750000
vt 0.812500 0.500000
vt 0.000000 0.000000
vt 0.000000 0.000000
vt 0.000000 0.000000
vt 0.000000 0.000000
vt 0.000000 0.000000
vt 0.875000 0.500000
vt 0.625000 0.500000
vt 0.625000 0.750000
vt 0.875000 0.750000
vt 0.812500 0.500000
vt 0.000000 0.000000
vt 0.875000 0.687500
vt 0.000000 0.000000
vt 0.000000 0.000000
vn 0.0000 1.0000 0.0000
vn -0.5424 0.8401 0.0000
vn 0.0000 0.0131 0.9999
vn 0.0000 -0.0131 -0.9999
vn 0.0000 0.8242 -0.5663
vn 0.0077 0.0131 0.9999
vn -0.9999 -0.0114 -0.0070
vn 0.5043 0.8635 0.0000
vn 0.0084 -0.0130 -0.9999
vn 0.9999 0.0114 0.0070
vn -0.0084 0.0130 0.9999
vn 0.0000 0.8528 0.5222
vn 0.9999 0.0113 0.0000
vn -0.5043 -0.8635 0.0000
vn -0.0077 -0.0131 -0.9999
vn -0.9999 -0.0113 0.0000
vn -0.9999 -0.0112 0.0077
vn 0.0000 -0.8242 0.5663
vn 0.9999 0.0112 -0.0077
vn 0.5424 -0.8401 0.0000
vn 0.0000 -0.8528 -0.5222
usemtl Material
s off
f 15/1/1 16/2/1 20/3/1
f 14/4/1 22/5/1 25/6/1
f 12/7/1 23/8/1 24/9/1
f 10/10/1 18/11/1 19/12/1
f 3/13/1 19/12/1 17/14/1
f 6/15/1 24/9/1 21/16/1
f 9/17/1 25/6/1 23/8/1
f 8/18/1 20/3/1 18/11/1
f 18/11/1 14/4/1 9/17/1
f 17/14/1 12/7/1 6/15/1
f 19/12/1 9/17/1 12/7/1
f 20/3/1 5/19/1 14/4/1
f 23/8/1 13/20/1 7/21/1
f 21/16/1 11/22/1 1/23/1
f 24/9/1 7/21/1 11/22/1
f 25/6/1 2/24/1 13/20/1
f 10/10/2 28/25/2 8/18/2
f 8/18/2 30/26/2 15/1/2
f 3/13/3 56/27/3 51/28/3
f 35/29/4 63/30/4 31/31/4
f 21/16/5 33/32/5 6/15/5
f 6/15/5 34/33/5 17/14/5
f 11/22/6 69/34/6 54/35/6
f 22/5/7 73/36/7 57/37/7
f 7/21/8 39/38/8 11/22/8
f 3/39/9 59/40/9 51/41/9
f 13/20/8 38/42/8 7/21/8
f 2/43/10 72/44/10 41/45/10
f 4/46/11 60/47/11 26/48/11
f 16/2/12 43/49/12 5/19/12
f 36/50/13 69/51/13 39/52/13
f 5/19/12 45/53/12 22/5/12
f 55/54/2 60/55/2 47/56/2
f 51/28/2 58/57/2 50/58/2
f 53/59/5 62/60/5 52/61/5
f 56/27/5 64/62/5 51/28/5
f 49/63/8 66/64/8 48/65/8
f 54/35/8 68/66/8 53/59/8
f 47/56/12 70/67/12 46/68/12
f 57/37/12 72/69/12 49/63/12
f 13/20/14 76/70/14 40/71/14
f 32/72/4 65/73/4 34/74/4
f 2/43/6 67/75/6 49/76/6
f 1/77/15 68/78/15 36/50/15
f 1/23/16 54/35/16 53/59/16
f 4/79/4 46/68/4 16/2/4
f 42/80/3 70/81/3 71/82/3
f 21/16/17 62/60/17 35/83/17
f 13/20/16 49/63/16 48/65/16
f 34/33/18 83/84/18 17/14/18
f 27/85/16 58/86/16 59/40/16
f 3/13/13 50/58/13 10/10/13
f 1/77/19 63/30/19 53/87/19
f 30/88/16 60/47/16 61/89/16
f 45/90/3 72/44/3 73/91/3
f 21/16/3 53/59/3 52/61/3
f 3/39/17 64/92/17 32/72/17
f 17/14/3 87/93/3 56/27/3
f 40/94/13 67/75/13 37/95/13
f 10/10/11 58/57/11 29/96/11
f 4/46/7 71/82/7 47/97/7
f 22/5/4 49/63/4 2/24/4
f 15/1/13 47/56/13 4/79/13
f 66/64/8 81/98/8 48/65/8
f 77/99/15 80/100/15 76/70/15
f 75/101/9 78/102/9 79/103/9
f 55/54/13 75/101/13 79/103/13
f 48/65/16 77/99/16 13/20/16
f 55/54/2 78/102/2 61/104/2
f 61/89/16 74/105/16 30/88/16
f 66/106/13 76/107/13 80/108/13
f 30/26/20 75/101/20 15/1/20
f 83/84/19 86/109/19 87/93/19
f 85/110/10 88/111/10 84/112/10
f 16/2/4 89/113/4 85/110/4
f 16/2/21 84/112/21 44/114/21
f 56/27/5 86/109/5 65/115/5
f 70/67/12 89/113/12 46/68/12
f 44/116/3 88/117/3 70/81/3
f 34/74/4 86/118/4 82/119/4
f 15/1/1 4/79/1 16/2/1
f 14/4/1 5/19/1 22/5/1
f 12/7/1 9/17/1 23/8/1
f 10/10/1 8/18/1 18/11/1
f 3/13/1 10/10/1 19/12/1
f 6/15/1 12/7/1 24/9/1
f 9/17/1 14/4/1 25/6/1
f 8/18/1 15/1/1 20/3/1
f 18/11/1 20/3/1 14/4/1
f 17/14/1 19/12/1 12/7/1
f 19/12/1 18/11/1 9/17/1
f 20/3/1 16/2/1 5/19/1
f 23/8/1 25/6/1 13/20/1
f 21/16/1 24/9/1 11/22/1
f 24/9/1 23/8/1 7/21/1
f 25/6/1 22/5/1 2/24/1
f 10/10/2 29/96/2 28/25/2
f 8/18/2 28/25/2 30/26/2
f 3/13/3 17/14/3 56/27/3
f 35/29/4 62/120/4 63/30/4
f 21/16/5 35/83/5 33/32/5
f 6/15/5 33/32/5 34/33/5
f 11/22/6 39/38/6 69/34/6
f 22/5/7 45/53/7 73/36/7
f 7/21/8 38/42/8 39/38/8
f 3/39/9 27/85/9 59/40/9
f 13/20/8 40/71/8 38/42/8
f 2/43/10 49/76/10 72/44/10
f 4/46/11 47/97/11 60/47/11
f 16/2/12 44/114/12 43/49/12
f 36/50/13 68/78/13 69/51/13
f 5/19/12 43/49/12 45/53/12
f 55/54/2 61/104/2 60/55/2
f 51/28/2 59/121/2 58/57/2
f 53/59/5 63/122/5 62/60/5
f 56/27/5 65/115/5 64/62/5
f 49/63/8 67/123/8 66/64/8
f 54/35/8 69/34/8 68/66/8
f 47/56/12 71/124/12 70/67/12
f 57/37/12 73/36/12 72/69/12
f 13/20/14 77/99/14 76/70/14
f 32/72/4 64/92/4 65/73/4
f 2/43/6 37/95/6 67/75/6
f 1/77/15 53/87/15 68/78/15
f 1/23/16 11/22/16 54/35/16
f 4/79/4 47/56/4 46/68/4
f 42/80/3 44/116/3 70/81/3
f 21/16/17 52/61/17 62/60/17
f 13/20/16 2/24/16 49/63/16
f 34/33/18 82/125/18 83/84/18
f 27/85/16 29/126/16 58/86/16
f 3/13/13 51/28/13 50/58/13
f 1/77/19 31/31/19 63/30/19
f 30/88/16 26/48/16 60/47/16
f 45/90/3 41/45/3 72/44/3
f 21/16/3 1/23/3 53/59/3
f 3/39/17 51/41/17 64/92/17
f 17/14/3 83/84/3 87/93/3
f 40/94/13 66/106/13 67/75/13
f 10/10/11 50/58/11 58/57/11
f 4/46/7 42/80/7 71/82/7
f 22/5/4 57/37/4 49/63/4
f 15/1/13 55/54/13 47/56/13
f 66/64/8 80/100/8 81/98/8
f 77/99/15 81/98/15 80/100/15
f 75/101/9 74/127/9 78/102/9
f 55/54/13 15/1/13 75/101/13
f 48/65/16 81/98/16 77/99/16
f 55/54/2 79/103/2 78/102/2
f 61/89/16 78/128/16 74/105/16
f 66/106/13 40/94/13 76/107/13
f 30/26/20 74/127/20 75/101/20
f 83/84/19 82/125/19 86/109/19
f 85/110/10 89/113/10 88/111/10
f 16/2/4 46/68/4 89/113/4
f 16/2/21 85/110/21 84/112/21
f 56/27/5 87/93/5 86/109/5
f 70/67/12 88/111/12 89/113/12
f 44/116/3 84/129/3 88/117/3
f 34/74/4 65/73/4 86/118/4
